<?xml version="1.0" encoding="utf-8"?>
<!-- Generator: Adobe Illustrator 24.1.0, SVG Export Plug-In . SVG Version: 6.00 Build 0)  -->
<svg version="1.1" id="Layer_1" xmlns="http://www.w3.org/2000/svg" xmlns:xlink="http://www.w3.org/1999/xlink" x="0px" y="0px"
	 viewBox="0 0 64 64" style="enable-background:new 0 0 64 64;" xml:space="preserve">
<style type="text/css">
	.st0{fill:#D6FDFF;}
</style>
<path class="st0" d="M9.7,7.5c1,0,1.9-0.8,1.9-1.9c0,0,0,0,0,0V1.9c0-1-0.9-1.9-1.9-1.8c-1,0-1.8,0.8-1.8,1.8v3.8
	C7.8,6.7,8.7,7.5,9.7,7.5z"/>
<path class="st0" d="M14.8,9.8c0.5,0,1-0.2,1.3-0.6l2.7-2.7c0.7-0.7,0.7-1.9,0-2.7c-0.7-0.7-1.9-0.7-2.6,0l-2.7,2.7
	c-0.7,0.7-0.7,1.9,0,2.7C13.8,9.6,14.3,9.8,14.8,9.8z"/>
<path class="st0" d="M5.9,6.3L3.2,3.6c-0.7-0.7-1.9-0.7-2.7,0s-0.7,1.9,0,2.7c0,0,0,0,0,0l2.7,2.7c0.7,0.7,1.9,0.7,2.7,0
	S6.6,7,5.9,6.3L5.9,6.3z"/>
<path class="st0" d="M60.8,27.1l1.6-1.6c2.2-2.2,2.2-5.8,0-8c-0.5-0.5-1.1-0.9-1.7-1.2c1.5-2.7,0.6-6.2-2.1-7.7c-1.7-1-3.9-1-5.6,0
	C52,6.6,50,5.2,47.7,5.2l0,0c-1.2,0-2.4,0.4-3.3,1.1c-0.3-0.6-0.6-1.2-1.1-1.7c-2.2-2.2-5.8-2.2-8,0L23,17c-1.9-2.1-5.1-2.3-7.4-0.7
	c-1.3-2.8-4.6-4.1-7.5-2.8c-2,0.9-3.3,2.9-3.3,5.1v25.2C4.6,48.5,6,52.6,8.7,55.3l2.7,2.7c2.4,2.5,5.8,3.8,9.2,3.8
	c0.4,0,0.7,0,1.1-0.1c5.2,3.6,12.2,2.9,16.7-1.5l24-24c2.2-2.2,2.2-5.8,0-8C61.9,27.7,61.4,27.4,60.8,27.1z M37.9,7.4
	c0.7-0.7,1.9-0.7,2.7,0c0.7,0.7,0.7,1.9,0,2.6L25.2,25.4l-0.6-4.7L37.9,7.4z M14,55.3l-2.7-2.7c-1.9-1.9-2.9-5-2.7-8.7V18.7
	c0-1,0.8-1.9,1.9-1.9c1.1,0,1.9,1,1.9,2.1c0,0,0,0.1,0,0.1l0.9,6.4V46c-0.1,1.1,0,2.2,0.1,3.3c0.1,0.4,0.2,0.8,0.2,1.2
	c0.1,0.6,0.2,1.3,0.4,1.9c0.1,0.4,0.3,0.8,0.5,1.2c0.2,0.5,0.4,1,0.7,1.5c0.2,0.4,0.5,0.6,0.7,1c0.3,0.4,0.6,0.8,0.9,1.2
	C15.8,56.8,14.8,56.1,14,55.3z M54.4,28.2l-8,8c-0.7,0.7-0.7,1.9,0,2.7s1.9,0.7,2.7,0l8-8c0.7-0.7,1.9-0.8,2.7-0.1s0.8,1.9,0.1,2.7
	c0,0,0,0-0.1,0.1l-24,24c-3.7,3.5-9.6,3.5-13.3,0l-2.7-2.7c-1.9-1.9-2.9-5-2.7-8.7V20.9c0-1,0.8-1.9,1.9-1.9c0.9,0,1.6,0.6,1.8,1.4
	c0,0,0,0.1,0,0.1h0c0.1,0.2,0.1,0.4,0.1,0.6l1.2,8.5c0.1,0.9,0.9,1.6,1.9,1.6c0.1,0,0.2,0,0.3-0.1c0.1,0,0.2,0,0.2,0
	c0.3-0.1,0.6-0.2,0.8-0.4l18.1-18.1l3-3C46.7,9.2,47.2,9,47.7,9l0,0c1,0,1.9,0.8,1.9,1.9c0,0.5-0.2,1-0.6,1.3L35.7,25.5
	c-0.7,0.7-0.7,1.9,0,2.7c0.7,0.7,1.9,0.7,2.7,0l13.3-13.3l2.7-2.7c0.7-0.7,1.9-0.7,2.7,0c0.7,0.7,0.7,1.9,0,2.7c0,0,0,0,0,0
	l-2.7,2.7L41.1,30.8c-0.7,0.7-0.7,1.9,0,2.7c0.7,0.7,1.9,0.7,2.7,0c0,0,0,0,0,0L57,20.2c0.7-0.7,1.9-0.7,2.7,0
	c0.7,0.7,0.7,1.9,0,2.7l0,0L54.4,28.2z"/>
</svg>
