<?xml version="1.0" encoding="utf-8"?>
<!-- Generator: Adobe Illustrator 24.1.0, SVG Export Plug-In . SVG Version: 6.00 Build 0)  -->
<svg version="1.1" id="Layer_1" xmlns="http://www.w3.org/2000/svg" xmlns:xlink="http://www.w3.org/1999/xlink" x="0px" y="0px"
	 viewBox="0 0 64 64" style="enable-background:new 0 0 64 64;" xml:space="preserve">
<style type="text/css">
	.st0{fill:#D6FDFF;}
</style>
<path class="st0" d="M62.1,8.6h-6.7V1.9c0-1-0.8-1.9-1.9-1.9c0,0,0,0,0,0H1.9C0.8,0,0,0.8,0,1.9c0,0,0,0,0,0v51.6
	c0,1,0.8,1.9,1.9,1.9c0,0,0,0,0,0h6.7v6.7c0,1,0.8,1.9,1.9,1.9c0,0,0,0,0,0h51.6c1,0,1.9-0.8,1.9-1.9c0,0,0,0,0,0V10.5
	C64,9.5,63.2,8.6,62.1,8.6C62.1,8.6,62.1,8.6,62.1,8.6z M60.2,12.4v38.1l-4.8-4.8V12.4H60.2z M51.6,3.8v37.9l-15-15.3
	c-0.4-0.4-0.8-0.6-1.3-0.6c-0.5,0-1,0.2-1.3,0.6l-4.3,4.3l-9.4-9.4c-0.7-0.7-1.7-0.7-2.5-0.2l-14,10.5V3.8L51.6,3.8z M3.8,36.2
	l9-6.7c0,0.1,0.1,0.2,0.1,0.2l6.5,6.5c0.7,0.7,1.9,0.7,2.7,0c0.7-0.7,0.7-1.9,0-2.6l-6.3-6.3l3-2.2l9.6,9.6l8.7,8.7
	c0.7,0.7,1.9,0.7,2.7,0c0.7-0.7,0.7-1.9,0-2.7c0,0,0,0,0,0l-7.4-7.4l2.9-2.9l16.3,16.6l0.1,4.7H3.8V36.2z M60.2,60.2H12.4v-4.8h41.1
	c0.5,0,1-0.2,1.3-0.6l0,0c0,0,0-0.1,0.1-0.1c0.2-0.2,0.4-0.6,0.4-0.9c0-0.1,0.1-0.2,0.1-0.3V51l4.8,4.8L60.2,60.2z"/>
<path class="st0" d="M36.3,21c3.4,0,6.2-2.8,6.2-6.2c0-3.4-2.8-6.2-6.2-6.2c-3.4,0-6.2,2.8-6.2,6.2C30.1,18.2,32.9,21,36.3,21z
	 M36.3,12.4c1.3,0,2.4,1.1,2.4,2.4s-1.1,2.4-2.4,2.4s-2.4-1.1-2.4-2.4C33.9,13.5,35,12.4,36.3,12.4C36.3,12.4,36.3,12.4,36.3,12.4
	L36.3,12.4z"/>
</svg>
